<?xml version="1.0" encoding="UTF-8"?>
<svg width="58px" height="20px" viewBox="0 0 58 20" version="1.1" xmlns="http://www.w3.org/2000/svg" xmlns:xlink="http://www.w3.org/1999/xlink">
    <!-- Generator: Sketch 51.3 (57544) - http://www.bohemiancoding.com/sketch -->
    <title>hulu logo</title>
    <desc>Created with Sketch.</desc>
    <defs></defs>
    <g id="Symbols" stroke="none" stroke-width="1" fill="none" fill-rule="evenodd">
        <g id="Nav---all-gray" transform="translate(-97.000000, -36.000000)" fill="#1CE783">
            <g id="White-Nav">
                <path d="M132.766667,55.6666667 L137.6,55.6666667 L137.6,36.3333333 L132.766667,36.3333333 L132.766667,55.6666667 Z M124.248868,50.0697295 C124.248868,50.7731396 123.691175,51.3419362 123.00285,51.3419362 L120.296068,51.3419362 C119.608013,51.3419362 119.050591,50.7731396 119.050591,50.0697295 L119.050591,42.1333333 L114.4,42.1333333 L114.4,50.4666735 C114.4,53.8725573 116.536649,55.6666667 119.695372,55.6666667 L124.248868,55.6666667 L124.248868,55.6418404 C127.157414,55.6418404 128.9,53.5313345 128.9,50.4666735 L128.9,42.1333333 L124.248868,42.1333333 L124.248868,50.0697295 L124.248868,50.0697295 Z M150.348511,42.1333333 L150.348511,50.0697295 C150.348511,50.7731396 149.79189,51.3419362 149.103281,51.3419362 L146.39753,51.3419362 C145.708651,51.3419362 145.15176,50.7731396 145.15176,50.0697295 L145.15176,42.1333333 L140.5,42.1333333 L140.5,50.4666735 C140.5,53.8725573 142.637229,55.6666667 145.796012,55.6666667 L150.349592,55.6666667 L150.349592,55.6418404 C153.257923,55.6418404 155,53.5313345 155,50.4666735 L155,42.1333333 L150.348511,42.1333333 L150.348511,42.1333333 Z M106.204748,42.3655958 L103.221976,42.3655958 C102.175963,42.3655958 101.649576,42.6489088 101.649576,42.6489088 L101.649576,36.3333333 L97,36.3333333 L97,55.6666667 L101.649576,55.6666667 L101.649576,47.8648502 C101.649576,47.1748678 102.208693,46.6161041 102.896297,46.6161041 L105.602621,46.6161041 C106.291577,46.6161041 106.84826,47.1748678 106.84826,47.8648502 L106.84826,55.6666667 L111.5,55.6666667 L111.5,47.2602684 C111.5,43.7268537 109.148839,42.3655958 106.204748,42.3655958 L106.204748,42.3655958 Z" id="hulu-logo"></path>
            </g>
        </g>
    </g>
</svg>