<?xml version="1.0" encoding="UTF-8"?>
<svg width="32px" height="32px" viewBox="0 0 32 32" version="1.1" xmlns="http://www.w3.org/2000/svg" xmlns:xlink="http://www.w3.org/1999/xlink">
    <!-- Generator: Sketch 52.6 (67491) - http://www.bohemiancoding.com/sketch -->
    <title>iconfinder_linked_in_online_social_media_734393</title>
    <desc>Created with Sketch.</desc>
    <g id="Page-1" stroke="none" stroke-width="1" fill="none" fill-rule="evenodd">
        <g id="iconfinder_linked_in_online_social_media_734393">
            <path d="M16,0 C7.163,0 0,7.163 0,16 C0,24.836 7.163,32 16,32 C24.837,32 32,24.836 32,16 C32,7.163 24.837,0 16,0 Z" id="Path" fill="#FF897D"></path>
            <path d="M24.294,22.942 L24.294,16.805 C24.294,13.517 22.539,11.987 20.198,11.987 C18.309,11.987 17.463,13.026 16.992,13.755 L16.992,12.238 L13.434,12.238 C13.481,13.243 13.434,22.942 13.434,22.942 L16.992,22.942 L16.992,16.964 C16.992,16.645 17.015,16.325 17.109,16.097 C17.366,15.458 17.951,14.796 18.934,14.796 C20.222,14.796 20.737,15.777 20.737,17.216 L20.737,22.943 L24.294,22.942 Z M9.685,10.777 C10.925,10.777 11.698,9.954 11.698,8.927 C11.675,7.877 10.925,7.078 9.708,7.078 C8.491,7.078 7.696,7.877 7.696,8.927 C7.696,9.955 8.468,10.777 9.663,10.777 L9.685,10.777 Z M11.464,22.942 L11.464,12.238 L7.907,12.238 L7.907,22.942 L11.464,22.942 Z" id="Shape" fill="#FFFFFF" fill-rule="nonzero"></path>
        </g>
    </g>
</svg>