<?xml version="1.0" encoding="UTF-8"?>
<svg width="34px" height="34px" viewBox="0 0 34 34" version="1.1" xmlns="http://www.w3.org/2000/svg" xmlns:xlink="http://www.w3.org/1999/xlink">
    <!-- Generator: Sketch 53 (72520) - https://sketchapp.com -->
    <title>Group</title>
    <desc>Created with Sketch.</desc>
    <g id="Page-1" stroke="none" stroke-width="1" fill="none" fill-rule="evenodd">
        <g id="Group" transform="translate(1.000000, 1.000000)" fill-rule="nonzero">
            <circle id="Oval" stroke="#FF897D" fill="#FFFFFF" cx="16" cy="16" r="16"></circle>
            <g id="iconfinder_github_rounded_394187" fill="#FF897D">
                <path d="M16.0000325,0 C7.16461057,0 0,7.3444509 0,16.405007 C0,23.6531456 4.58453225,29.8024172 10.9418005,31.9717102 C11.7413474,32.1235054 12.0350386,31.6157007 12.0350386,31.1824949 C12.0350386,30.7915173 12.0202924,29.49896 12.0133415,28.1281406 C7.56211036,29.1206376 6.62289611,26.1925684 6.62289611,26.1925684 C5.89500182,24.2964935 4.8463923,23.7921524 4.8463923,23.7921524 C3.39456637,22.7739455 4.95585253,22.7949264 4.95585253,22.7949264 C6.56235193,22.9106212 7.40847627,24.4857214 7.40847627,24.4857214 C8.55826214,26.50632 10.2851453,26.4281419 11.3903728,26.1022573 C11.6568541,26.0236834 11.887196,25.9307092 12.0645962,25.8492807 C12.2082262,24.789112 12.6226809,24.0651707 13.0804001,23.6555434 C9.52654796,23.240854 5.79054363,21.8340673 5.79054363,15.54812 C5.79054363,13.7572162 6.41566873,12.2936811 7.43926805,11.1447931 C7.27316133,10.7314359 6.72540545,9.06302057 7.59426633,6.80321002 C7.59426633,6.80321002 8.93793126,6.3625443 11.9952172,8.48501314 C13.271582,8.12147724 14.640387,7.93917645 16.0000974,7.93284887 C17.3597429,7.93917645 18.7295874,8.12147724 20.0082258,8.48501314 C23.0621987,6.3625443 24.4038498,6.80321002 24.4038498,6.80321002 C25.2747245,9.06302057 24.7269686,10.7314359 24.5608619,11.1447931 C25.5867998,12.2936811 26.2075075,13.7571496 26.2075075,15.54812 C26.2075075,21.8491869 22.4645523,23.2363248 18.9016056,23.6425552 C19.475476,24.151692 19.9867235,25.1499837 19.9867235,26.6804578 C19.9867235,28.8754607 19.9684043,30.6421199 19.9684043,31.1824949 C19.9684043,31.6191643 20.256314,32.1306988 21.0672291,31.9696454 C27.4212493,29.7979546 32,23.6508144 32,16.405007 C32,7.3444509 24.8363639,0 16.0000325,0 Z" id="Path"></path>
                <path d="M5.98421984,23.4550453 C5.81538451,23.35749 5.72095758,23.1549779 5.77544192,23.0060969 C5.82548819,22.8532118 6.00744887,22.8107437 6.17600092,22.9127885 C6.34493069,23.0104651 6.44124615,23.2147973 6.38289031,23.3636783 C6.33171092,23.5125592 6.14975024,23.5569687 5.98421984,23.4550453 Z" id="Path"></path>
                <path d="M6.52810789,24.6653613 C6.38524896,24.5137698 6.35876736,24.3110007 6.46433949,24.2137633 C6.5715944,24.1177612 6.7688336,24.1626739 6.91160396,24.3142654 C7.05455146,24.4675335 7.08236157,24.6685379 6.97368958,24.7658635 C6.86971167,24.8616891 6.66609562,24.8171293 6.52810789,24.6653613 Z" id="Path"></path>
                <path d="M7.13264647,25.2814872 C7.00864292,25.1197635 7.00864292,24.9257836 7.13552072,24.8480587 C7.26083822,24.7704815 7.46072208,24.8403822 7.58759989,25.0007035 C7.71127495,25.1651583 7.71127495,25.3591382 7.58472563,25.4381917 C7.46072208,25.5157689 7.25796396,25.4431372 7.13264647,25.2814872 Z" id="Path"></path>
                <path d="M7.82729312,25.9892668 C7.67769963,25.8457136 7.63618831,25.6417437 7.72990117,25.5339341 C7.82507178,25.4261245 8.02582555,25.4563691 8.17285061,25.6022376 C8.32133343,25.7457184 8.36638502,25.9509184 8.26663288,26.0576426 C8.17285061,26.1653799 7.97320751,26.1362206 7.82729312,25.9892668 Z" id="Path"></path>
                <path d="M9.21507092,26.7493748 C9.0436536,26.6774365 8.93175277,26.4852037 8.96624528,26.3193625 C9.00172153,26.153947 9.17289292,26.0763048 9.34553992,26.1508822 C9.51677278,26.2223948 9.62891955,26.4132654 9.5934433,26.5804688 C9.55673737,26.7445221 9.38654973,26.8191847 9.21507092,26.7493748 Z" id="Path"></path>
                <path d="M10.564038,26.7753344 C10.3860921,26.7812888 10.2418738,26.6351841 10.24,26.4574411 C10.24,26.2750768 10.379806,26.1271057 10.5578123,26.1225733 C10.7347306,26.1175965 10.8799161,26.2627236 10.8799161,26.4418886 C10.8839658,26.6223866 10.7409563,26.772135 10.564038,26.7753344 Z" id="Path"></path>
                <path d="M11.8787401,26.7648762 C11.7051807,26.810706 11.5446125,26.7037988 11.522394,26.5326775 C11.500904,26.3557186 11.626566,26.1784111 11.800004,26.1325813 C11.9767808,26.0884941 12.1351028,26.1921775 12.1576249,26.3678295 C12.1788721,26.5403449 12.055274,26.7176523 11.8787401,26.7648762 Z" id="Path"></path>
            </g>
        </g>
    </g>
</svg>