
		<svg xmlns="http://www.w3.org/2000/svg" xmlns:xlink="http://www.w3.org/1999/xlink" version="1.1" width="3350.877192982456" height="1754.3859649122808">
			
			<g transform="scale(17.54385964912281) translate(10, 10)">
				<defs id="SvgjsDefs1091"/><g id="SvgjsG1092" featureKey="root" fill="#fff"/><g id="SvgjsG1093" featureKey="text1" fill="#fff" transform="matrix(3.745319136878129,0,0,3.745319136878129,-1.1984987484361405,-19.8876592850751)"><path d="M12.98 23.7 q0 0.12 -0.09 0.21 t-0.21 0.09 q-0.24 0 -0.3 -0.2 l-5.82 -14.68 l-0.66 1.7 q0.08 0.16 0.34 0.8 t0.64 1.57 t0.82 2.06 t0.9 2.29 t0.89 2.26 t0.76 1.96 t0.53 1.39 t0.2 0.55 q0 0.22 -0.2 0.28 q-0.04 0 -0.06 0.01 t-0.06 0.01 q-0.2 0 -0.28 -0.2 l-4.8 -12.12 l-4.66 12.12 q-0.08 0.2 -0.3 0.2 q-0.04 0 -0.05 -0.01 t-0.05 -0.01 q-0.2 -0.06 -0.2 -0.3 q0 -0.02 0.24 -0.66 t0.63 -1.66 t0.9 -2.34 t1.04 -2.71 t1.06 -2.75 t0.96 -2.49 t0.73 -1.9 t0.38 -0.99 q0.08 -0.18 0.3 -0.18 t0.28 0.18 q0.08 0.22 0.39 0.99 t0.75 1.9 t0.99 2.49 t1.1 2.75 t1.08 2.71 t0.93 2.35 t0.65 1.67 t0.25 0.66 z M31.9 8.28 q0 0.1 -0.02 0.12 l0 15.3 q0 0.12 -0.09 0.21 t-0.21 0.09 t-0.2 -0.09 t-0.08 -0.21 l0 -14.44 l-6.9 9.66 q0.08 0.14 0.36 0.52 t0.65 0.89 t0.79 1.06 t0.76 1.04 t0.57 0.83 t0.23 0.42 q0 0.14 -0.1 0.23 t-0.22 0.09 q-0.16 0 -0.24 -0.12 l-11 -15.32 q-0.06 -0.08 -0.06 -0.2 t0.08 -0.21 t0.22 -0.09 q0.18 0 0.26 0.14 l7.32 10.2 l7.32 -10.28 q0.08 -0.12 0.22 -0.12 q0.12 0 0.23 0.08 t0.11 0.2 z M25.34 23.7 q0 0.12 -0.1 0.21 t-0.22 0.09 q-0.16 0 -0.24 -0.12 l-8.04 -11.28 l0 11 q0 0.14 -0.1 0.22 t-0.22 0.08 t-0.22 -0.09 t-0.1 -0.21 l0 -11.92 q0 -0.14 0.08 -0.26 t0.24 -0.12 t0.24 0.14 q0.14 0.2 0.59 0.81 t1.08 1.49 t1.4 1.94 t1.55 2.15 t1.51 2.12 t1.3 1.84 t0.91 1.33 t0.34 0.58 z M45.96 19.7 q0 1.08 -0.47 1.89 t-1.24 1.34 t-1.72 0.8 t-1.91 0.27 q-1.7 0 -3.22 -0.66 t-2.72 -1.8 q-0.12 -0.12 -0.12 -0.22 q0 -0.12 0.1 -0.23 t0.24 -0.11 q0.1 0 0.2 0.1 q1.24 1.04 2.57 1.67 t2.99 0.63 q0.84 0 1.67 -0.23 t1.5 -0.7 t1.08 -1.17 t0.41 -1.64 q0 -0.76 -0.36 -1.31 t-0.94 -0.94 t-1.33 -0.65 t-1.51 -0.45 t-1.49 -0.33 t-1.27 -0.28 q-0.66 -0.18 -1.27 -0.49 t-1.07 -0.77 t-0.73 -1.07 t-0.27 -1.37 q0 -1.02 0.47 -1.77 t1.22 -1.24 t1.66 -0.74 t1.79 -0.25 q0.56 0 1.27 0.12 t1.42 0.35 t1.33 0.55 t1.04 0.72 q0.06 0.06 0.09 0.1 t0.03 0.14 q0 0.12 -0.1 0.22 t-0.22 0.1 q-0.04 0 -0.15 -0.06 t-0.24 -0.15 t-0.24 -0.16 t-0.17 -0.11 q-0.9 -0.54 -1.92 -0.86 t-2.1 -0.32 q-0.76 0 -1.56 0.19 t-1.47 0.59 t-1.1 1.03 t-0.43 1.51 q0 0.96 0.44 1.57 t1.16 1 t1.64 0.63 t1.89 0.46 t1.89 0.48 t1.64 0.71 t1.16 1.14 t0.44 1.77 z"/></g>
			</g>
		</svg>
	